REM DIRINDEX 1\2\5,1\2\6,1\2\7,1\2\8,1\3\9,1\3\10,1\3\11,1\4\12,1\4\13,1\4\14,1\4\15,1\4\16
REM DIRNAME folder01,folder02,folder03,folder04,folder05,folder06,folder07,folder08,folder09,folder10,folder11,folder12,folder13,folder14,folder15,folder16
TITLE ""
FILE "1200_sec05_1528_1534.mp3" MP3
  TRACK 01 AUDIO
    TITLE "0:"
    INDEX 01 00:00:00
  TRACK 02 AUDIO
    TITLE "12:cjc034_09857"
    INDEX 01 00:00:17
  TRACK 03 AUDIO
    TITLE "0:"
    INDEX 01 00:01:36
  TRACK 04 AUDIO
    TITLE "13:cjc034_09858"
    INDEX 01 00:01:68
  TRACK 05 AUDIO
    TITLE "0:"
    INDEX 01 00:06:02
  TRACK 06 AUDIO
    TITLE "14:cjc034_09859"
    INDEX 01 00:06:31
  TRACK 07 AUDIO
    TITLE "0:"
    INDEX 01 00:07:47
  TRACK 08 AUDIO
    TITLE "15:cjc034_09860"
    INDEX 01 00:08:09
  TRACK 09 AUDIO
    TITLE "0:"
    INDEX 01 00:12:58
  TRACK 10 AUDIO
    TITLE "12:cjc034_09861"
    INDEX 01 00:14:19
  TRACK 11 AUDIO
    TITLE "0:"
    INDEX 01 00:15:40
  TRACK 12 AUDIO
    TITLE "13:cjc034_09862"
    INDEX 01 00:16:00
  TRACK 13 AUDIO
    TITLE "0:"
    INDEX 01 00:18:19
  TRACK 14 AUDIO
    TITLE "14:cjc034_09863"
    INDEX 01 00:18:52
  TRACK 15 AUDIO
    TITLE "0:"
    INDEX 01 00:20:00
  TRACK 16 AUDIO
    TITLE "15:cjc034_09864"
    INDEX 01 00:20:34
  TRACK 17 AUDIO
    TITLE "0:"
    INDEX 01 00:23:57
  TRACK 18 AUDIO
    TITLE "12:cjc034_09865"
    INDEX 01 00:25:15
  TRACK 19 AUDIO
    TITLE "0:"
    INDEX 01 00:26:46
  TRACK 20 AUDIO
    TITLE "13:cjc034_09866"
    INDEX 01 00:27:04
  TRACK 21 AUDIO
    TITLE "0:"
    INDEX 01 00:29:48
  TRACK 22 AUDIO
    TITLE "14:cjc034_09867"
    INDEX 01 00:30:06
  TRACK 23 AUDIO
    TITLE "0:"
    INDEX 01 00:31:39
  TRACK 24 AUDIO
    TITLE "15:cjc034_09868"
    INDEX 01 00:31:73
  TRACK 25 AUDIO
    TITLE "0:"
    INDEX 01 00:36:17
  TRACK 26 AUDIO
    TITLE "16:cjc034_09869"
    INDEX 01 00:37:50
  TRACK 27 AUDIO
    TITLE "0:"
    INDEX 01 00:39:23
  TRACK 28 AUDIO
    TITLE "12:cjc034_09870"
    INDEX 01 00:40:21
  TRACK 29 AUDIO
    TITLE "0:"
    INDEX 01 00:41:65
  TRACK 30 AUDIO
    TITLE "13:cjc034_09871"
    INDEX 01 00:42:18
  TRACK 31 AUDIO
    TITLE "0:"
    INDEX 01 00:45:53
  TRACK 32 AUDIO
    TITLE "14:cjc034_09872"
    INDEX 01 00:46:07
  TRACK 33 AUDIO
    TITLE "0:"
    INDEX 01 00:47:50
  TRACK 34 AUDIO
    TITLE "15:cjc034_09873"
    INDEX 01 00:48:06
  TRACK 35 AUDIO
    TITLE "0:"
    INDEX 01 00:53:04
  TRACK 36 AUDIO
    TITLE "12:cjc034_09874"
    INDEX 01 00:54:38
  TRACK 37 AUDIO
    TITLE "0:"
    INDEX 01 00:55:73
  TRACK 38 AUDIO
    TITLE "13:cjc034_09875"
    INDEX 01 00:56:31
  TRACK 39 AUDIO
    TITLE "0:"
    INDEX 01 00:59:28
  TRACK 40 AUDIO
    TITLE "14:cjc034_09876"
    INDEX 01 00:59:61
  TRACK 41 AUDIO
    TITLE "0:"
    INDEX 01 01:01:19
  TRACK 42 AUDIO
    TITLE "15:cjc034_09877"
    INDEX 01 01:01:54
  TRACK 43 AUDIO
    TITLE "0:"
    INDEX 01 01:06:08
  TRACK 44 AUDIO
    TITLE "12:cjc034_09878"
    INDEX 01 01:07:39
  TRACK 45 AUDIO
    TITLE "0:"
    INDEX 01 01:08:62
  TRACK 46 AUDIO
    TITLE "13:cjc034_09879"
    INDEX 01 01:09:22
  TRACK 47 AUDIO
    TITLE "0:"
    INDEX 01 01:12:34
  TRACK 48 AUDIO
    TITLE "14:cjc034_09880"
    INDEX 01 01:12:68
  TRACK 49 AUDIO
    TITLE "0:"
    INDEX 01 01:14:17
  TRACK 50 AUDIO
    TITLE "15:cjc034_09881"
    INDEX 01 01:14:47
  TRACK 51 AUDIO
    TITLE "0:"
    INDEX 01 01:20:12
  TRACK 52 AUDIO
    TITLE "12:cjc034_09882"
    INDEX 01 01:21:45
  TRACK 53 AUDIO
    TITLE "0:"
    INDEX 01 01:22:60
  TRACK 54 AUDIO
    TITLE "13:cjc034_09883"
    INDEX 01 01:23:18
  TRACK 55 AUDIO
    TITLE "0:"
    INDEX 01 01:26:01
  TRACK 56 AUDIO
    TITLE "14:cjc034_09884"
    INDEX 01 01:26:34
  TRACK 57 AUDIO
    TITLE "0:"
    INDEX 01 01:27:50
  TRACK 58 AUDIO
    TITLE "15:cjc034_09885"
    INDEX 01 01:28:08
  TRACK 59 AUDIO
    TITLE "0:"
    INDEX 01 01:31:61
